<svg xmlns="http://www.w3.org/2000/svg" data-name="Слой 1" width="128" height="128"><rect id="backgroundrect" width="100%" height="100%" x="0" y="0" fill="none" stroke="none"/><title/><g class="currentLayer" style=""><title>Layer 1</title><path d="M120,55.28571426868439 a8,8 0 0 0 -7.74,6 H102 a37.86,37.86 0 0 0 -9.72,-23.4 l7.3100000000000005,-7.3100000000000005 a8,8 0 1 0 -2.83,-2.83 L89.4,35.05571426868439 A37.86,37.86 0 0 0 66,25.335714268684388 V15.025714268684387 a8,8 0 1 0 -4,0 V25.335714268684388 a37.86,37.86 0 0 0 -23.4,9.72 l-7.3100000000000005,-7.3100000000000005 a8,8 0 1 0 -2.83,2.83 l7.3100000000000005,7.3100000000000005 A37.86,37.86 0 0 0 26.05,61.28571426868439 H15.74 a8,8 0 1 0 0,4 H26.05 a37.86,37.86 0 0 0 9.72,23.4 l-7.3100000000000005,7.3100000000000005 a8,8 0 1 0 2.83,2.83 l7.3100000000000005,-7.3100000000000005 A37.86,37.86 0 0 0 62,101.28571426868439 v10.31 a8,8 0 1 0 4,0 V101.28571426868439 a37.86,37.86 0 0 0 23.4,-9.72 l7.3100000000000005,7.3100000000000005 a8,8 0 1 0 2.83,-2.83 L92.23,88.68571426868439 A37.86,37.86 0 0 0 102,65.28571426868439 h10.31 A8,8 0 1 0 120,55.28571426868439 zM100.77,20.855714268684387 A4,4 0 1 1 99.6,23.685714268684386 A4,4 0 0 1 100.77,20.855714268684387 zM60,7.285714268684387 a4,4 0 1 1 4,4 A4,4 0 0 1 60,7.285714268684387 zM21.57,26.515714268684388 a4,4 0 0 1 5.66,-5.66 a4,4 0 0 1 -5.66,5.66 zM8,67.28571426868439 a4,4 0 1 1 4,-4 A4,4 0 0 1 8,67.28571426868439 zm19.23,38.43 a4,4 0 0 1 -5.66,-5.66 a4,4 0 0 1 5.66,5.66 zM68,119.28571426868439 a4,4 0 1 1 -4,-4 A4,4 0 0 1 68,119.28571426868439 zm38.43,-19.23 a4,4 0 0 1 -5.66,5.66 a4,4 0 0 1 5.66,-5.66 zM64,97.28571426868439 A34,34 0 1 1 98,63.28571426868439 A34,34 0 0 1 64,97.28571426868439 zm56,-30 a4,4 0 1 1 4,-4 A4,4 0 0 1 120,67.28571426868439 z" id="svg_1" class="" fill-opacity="1" fill="#fa2a28"/><path d="M40.34,58.34a8,8,0,1,0,11.32,0A8,8,0,0,0,40.34,58.34Zm8.49,8.49a4,4,0,1,1,0-5.66A4,4,0,0,1,48.83,66.83Z" id="svg_2" class="" fill-opacity="1" fill="#fa2a28"/><path d="M58.34,40.34a8,8,0,1,0,11.32,0A8,8,0,0,0,58.34,40.34Zm8.49,8.49a4,4,0,1,1,0-5.66A4,4,0,0,1,66.83,48.83Z" id="svg_3" class="" fill-opacity="1" fill="#fa2a28"/><path d="M76.34,58.34a8,8,0,1,0,11.32,0A8,8,0,0,0,76.34,58.34Zm8.49,8.49a4,4,0,1,1,0-5.66A4,4,0,0,1,84.83,66.83Z" id="svg_4" class="" fill-opacity="1" fill="#fa2a28"/><path d="M58.34,76.34a8,8,0,1,0,11.32,0A8,8,0,0,0,58.34,76.34Zm8.49,8.49a4,4,0,1,1,0-5.66A4,4,0,0,1,66.83,84.83Z" id="svg_5" class="" fill-opacity="1" fill="#fa2a28"/></g></svg>